<svg
  xmlns="http://www.w3.org/2000/svg"
  xmlns:xlink="http://www.w3.org/1999/xlink"
  xmlns:serif="http://www.serif.com/"
  width="100%"
  height="100%"
  viewBox="0 0 848 848"
  xml:space="preserve"
  style="fill-rule:evenodd;clip-rule:evenodd;stroke-linecap:round;stroke-linejoin:round;stroke-miterlimit:1.5;">
  <g id="PIOTR">
    <g transform="matrix(2.08333,0,0,2.08333,-148.917,-135.832)">
      <g transform="matrix(122.609,0,0,122.609,103.043,186.087)">
        <path
          d="M0.561,-0.459c-0,-0.132 -0.106,-0.241 -0.24,-0.241l-0.256,0l0,0.7l0.15,-0l-0,-0.216l0.106,-0c0.134,-0 0.24,-0.108 0.24,-0.243Zm-0.155,-0c0,0.06 -0.044,0.104 -0.1,0.104l-0.091,0l-0,-0.207l0.091,-0c0.056,-0 0.1,0.046 0.1,0.103Z"
          style="fill-rule:nonzero;"></path>
      </g>
      <g transform="matrix(122.609,0,0,122.609,175.015,186.087)">
        <rect x="0.065" y="-0.7" width="0.15" height="0.7" style="fill-rule:nonzero;"></rect>
      </g>
      <g transform="matrix(122.609,0,0,122.609,209.346,186.087)">
        <path
          d="M0.742,-0.349c-0,-0.206 -0.154,-0.363 -0.358,-0.363c-0.204,0 -0.358,0.157 -0.358,0.363c0,0.206 0.154,0.363 0.358,0.363c0.204,-0 0.358,-0.157 0.358,-0.363Zm-0.559,-0c-0,-0.124 0.085,-0.216 0.201,-0.216c0.116,-0 0.201,0.092 0.201,0.216c0,0.124 -0.085,0.216 -0.201,0.216c-0.116,0 -0.201,-0.092 -0.201,-0.216Z"
          style="fill-rule:nonzero;"></path>
      </g>
      <g transform="matrix(122.609,0,0,122.609,301.18,186.087)">
        <path d="M0.19,-0l0.15,-0l-0,-0.554l0.159,-0l-0,-0.146l-0.468,0l0,0.146l0.159,-0l0,0.554Z" style="fill-rule:nonzero;"></path>
      </g>
      <g transform="matrix(122.609,0,0,122.609,366.163,186.087)">
        <path
          d="M0.583,-0.442c-0,-0.142 -0.116,-0.258 -0.259,-0.258l-0.259,0l0,0.7l0.15,-0l-0,-0.189l0.092,-0c0.076,-0 0.126,0.061 0.126,0.135l0,0.054l0.15,-0l-0,-0.054c-0,-0.073 -0.017,-0.143 -0.097,-0.203c0.051,-0.04 0.097,-0.091 0.097,-0.185Zm-0.157,0c0,0.065 -0.05,0.119 -0.12,0.119l-0.091,0l-0,-0.239l0.091,-0c0.069,-0 0.12,0.054 0.12,0.12Z"
          style="fill-rule:nonzero;"></path>
      </g>
      <g transform="matrix(122.609,0,0,122.609,204.932,308.696)">
        <path d="M0.06,-0l0.144,-0l-0,-0.46l0.417,0.473l-0,-0.713l-0.144,0l0,0.319l-0.289,-0.319l-0.128,0l0,0.7Z" style="fill-rule:nonzero;"></path>
      </g>
      <g transform="matrix(122.609,0,0,122.609,288.429,308.696)">
        <path d="M0.43,-0.098l0.042,0.098l0.159,-0l-0.314,-0.713l-0.314,0.713l0.159,-0l0.042,-0.098l0.226,-0Zm-0.045,-0.134l-0.136,0l0.068,-0.163l0.068,0.163Z" style="fill-rule:nonzero;"></path>
      </g>
      <g transform="matrix(122.609,0,0,122.609,366.163,308.696)">
        <path
          d="M0.583,-0.442c-0,-0.142 -0.116,-0.258 -0.259,-0.258l-0.259,0l0,0.7l0.15,-0l-0,-0.189l0.092,-0c0.076,-0 0.126,0.061 0.126,0.135l0,0.054l0.15,-0l-0,-0.054c-0,-0.073 -0.017,-0.143 -0.097,-0.203c0.051,-0.04 0.097,-0.091 0.097,-0.185Zm-0.157,0c0,0.065 -0.05,0.119 -0.12,0.119l-0.091,0l-0,-0.239l0.091,-0c0.069,-0 0.12,0.054 0.12,0.12Z"
          style="fill-rule:nonzero;"></path>
      </g>
    </g>
    <rect x="724.617" y="249.349" width="38.126" height="149.718"></rect>
    <rect x="724.617" y="498.856" width="38.126" height="149.718"></rect>
    <path d="M289.073,745.773l111.593,-0l0,-37.517l-73.31,-0l0,-36.56l69.734,0l0,-36.24l-69.734,0l0,-31.195l72.033,0l0,-37.262l-110.316,0l-0,178.774Z" style="fill-rule:nonzero;"></path>
    <path
      d="M547.287,697.268c-8.685,8.432 -21.201,14.308 -36.272,14.308c-29.12,0 -51.343,-23.251 -51.343,-54.934c0,-31.684 21.712,-55.191 51.343,-55.191c15.071,0 27.587,5.877 36.272,14.309l-0,-44.424c-9.962,-4.594 -23.245,-7.402 -36.272,-7.402c-52.108,0 -91.414,40.073 -91.414,92.708c-0,52.635 39.306,92.451 91.414,92.451c13.027,0 25.799,-2.552 36.272,-7.401l-0,-44.424Z"
      style="fill-rule:nonzero;"></path>
    <path d="M574.906,745.773l38.283,-0l0,-58.995l5.364,-7.151l42.147,66.146l47.511,-0l-64.114,-98.325l59.772,-80.449l-45.723,0l-44.957,63.593l0,-63.593l-38.283,0l-0,178.774Z" style="fill-rule:nonzero;"></path>
    <rect x="724.591" y="566.999" width="38.283" height="178.773" style="fill-none:nonzero;"></rect>
    <rect x="10.417" y="10.417" width="826.992" height="826.992" style="fill:none;stroke:#FFFFFF;stroke-width:20.83px;"></rect>
  </g>
</svg>
